<svg xmlns="http://www.w3.org/2000/svg" width="80px" height="100px" viewBox="0 0 80 100">
<path fill="white" d="M55.999,0H0v100h80v-76L55.999,0z M21.048,79.243c-3.169,0-5.738-2.571-5.738-5.741s2.568-5.738,5.738-5.738
	c3.171,0,5.738,2.568,5.738,5.738S24.219,79.243,21.048,79.243z M21.048,63.299c-3.169,0-5.738-2.574-5.738-5.742
	c0-3.173,2.568-5.741,5.738-5.741c3.171,0,5.738,2.568,5.738,5.741C26.787,60.725,24.219,63.299,21.048,63.299z M21.048,47.352
	c-3.164,0-5.738-2.574-5.738-5.738c0-3.169,2.574-5.741,5.738-5.741c3.165,0,5.738,2.572,5.738,5.741
	C26.787,44.778,24.213,47.352,21.048,47.352z M62.511,76.691H30.616v-6.376h31.895V76.691z M62.511,60.747H30.616v-6.379h31.895
	V60.747z M62.511,44.799H30.616V38.42h31.895V44.799z M71.997,28.001H51.996V8.002h4.003L60,20l11.996,4V28.001z"/>
</svg>
